<svg xmlns="http://www.w3.org/2000/svg" width="16" height="16" viewBox="0 0 16 16"><circle cx="8" cy="8" r="8" fill="#fff"/><path d="M12.48,5.94h-.35Q11.38,2.7,8.78,2.7A3.08,3.08,0,0,0,6,4.27a7.38,7.38,0,0,0-.87,3.88A6.44,6.44,0,0,0,6,11.61,3.1,3.1,0,0,0,8.8,13.23a4.74,4.74,0,0,0,3.62-1.74l.25.34a5.19,5.19,0,0,1-1.79,1.57,4.55,4.55,0,0,1-2.21.6,5,5,0,0,1-3.81-1.54A6.27,6.27,0,0,1,3.34,8a6.25,6.25,0,0,1,1.48-4.3A4.77,4.77,0,0,1,8.62,2a4.76,4.76,0,0,1,1.71.32,5.79,5.79,0,0,0,1.08.31q.38,0,.63-.6h.34Z" fill="#c3137f"/></svg>