<svg xmlns="http://www.w3.org/2000/svg" width="114" height="32" viewBox="0 0 114 32"><path d="M12.65,4.86h-.43q-.93-4-4.14-4A3.81,3.81,0,0,0,4.64,2.8,9,9,0,0,0,3.57,7.59a8,8,0,0,0,1.1,4.27,3.87,3.87,0,0,0,3.44,2,5.89,5.89,0,0,0,4.46-2.15l.31.42a6.48,6.48,0,0,1-2.21,1.94,5.65,5.65,0,0,1-2.73.73A6.11,6.11,0,0,1,3.25,12.9,7.69,7.69,0,0,1,1.37,7.43,7.75,7.75,0,0,1,3.19,2.12,5.92,5.92,0,0,1,7.88,0,6.13,6.13,0,0,1,10,.39a7.44,7.44,0,0,0,1.33.39q.46,0,.78-.75h.41Z" fill="#c3137f"/><path d="M20.76,0a5.42,5.42,0,0,1,4.37,2A7.89,7.89,0,0,1,27,7.43a8.09,8.09,0,0,1-1.68,5.24,5.62,5.62,0,0,1-4.57,2.15,5.61,5.61,0,0,1-4.37-2,7.84,7.84,0,0,1-1.88-5.41,8,8,0,0,1,1.73-5.31A5.79,5.79,0,0,1,20.76,0Zm0,.78q-4.08.2-4.08,6.65a12.43,12.43,0,0,0,.3,2.86,7.14,7.14,0,0,0,.85,2.14,3.71,3.71,0,0,0,1.31,1.28,2.54,2.54,0,0,0,1.62.33,3.86,3.86,0,0,0,3.32-2.57,8.66,8.66,0,0,0,.76-4,10.78,10.78,0,0,0-1-4.66A3.18,3.18,0,0,0,20.76.78Z" fill="#c3137f"/><path d="M28.31,14.53v-.42c1.12,0,1.68-.44,1.68-1.31V2c0-.87-.56-1.3-1.68-1.3V.3h5.3V.72c-1.12,0-1.68.43-1.68,1.3V12.8c0,.57.63.85,1.91.85A9.48,9.48,0,0,0,37,13.32,3.9,3.9,0,0,0,39,10.78h.49l-.93,3.75Z" fill="#c3137f"/><path d="M40.38,14.53v-.42c1.12,0,1.68-.44,1.68-1.31V2c0-.87-.56-1.3-1.68-1.3V.3h5.29V.72C44.55.72,44,1.15,44,2V12.8c0,.57.63.85,1.91.85A9.48,9.48,0,0,0,49,13.32a3.9,3.9,0,0,0,2.06-2.54h.49l-.93,3.75Z" fill="#c3137f"/><path d="M63.88,12c.13.35.25.64.36.88a4.56,4.56,0,0,0,.27.52,1.28,1.28,0,0,0,1.19.69v.42H60.84v-.42c.89,0,1.33-.26,1.33-.72a5.3,5.3,0,0,0-.46-1.66L61,9.87H56c0,.05-.08.2-.16.47s-.23.68-.42,1.23A5.7,5.7,0,0,0,55,13.23c0,.58.44.88,1.31.88v.42H52.5v-.42c.53,0,1-.41,1.39-1.14A24.74,24.74,0,0,0,55,10.36L58.84,0h.38ZM56.35,9h4.4L58.52,3.1Z" fill="#c3137f"/><path d="M78.35,4.56h-.44Q76.76.86,73.69.85a3.83,3.83,0,0,0-3.47,2,9.2,9.2,0,0,0-1.08,4.78A7.47,7.47,0,0,0,70.36,12,4.23,4.23,0,0,0,74,13.94a4.61,4.61,0,0,0,2.14-.45,1.19,1.19,0,0,0,.46-.41,1.67,1.67,0,0,0,.09-.67V9.22a3,3,0,0,0-.23-1.43A1.69,1.69,0,0,0,75,7.3V6.87h4.89V7.3c-.58,0-.95.14-1.11.44a3.15,3.15,0,0,0-.25,1.48v4.07a8.77,8.77,0,0,1-4.8,1.53A6.38,6.38,0,0,1,69.12,13a7.23,7.23,0,0,1-2.18-5.57A7.72,7.72,0,0,1,68.8,2.12,6,6,0,0,1,73.49,0a7.37,7.37,0,0,1,2,.36A8.2,8.2,0,0,0,77,.72q.6,0,.81-.72h.4Z" fill="#c3137f"/><path d="M80.87,14.53v-.42c1.11,0,1.67-.44,1.67-1.31V2c0-.87-.56-1.3-1.67-1.3V.3H91V3.36h-.4c-.25-1.46-1-2.19-2.17-2.19h-3.1a.75.75,0,0,0-.84.85V6.65h2.69c1.59,0,2.38-.7,2.38-2.09H90V9.61h-.4c0-1.39-.79-2.08-2.38-2.08H84.48V12.8c0,.57.17.85.49.85h2.55a5,5,0,0,0,2.17-.36,4.12,4.12,0,0,0,1.83-2.41H92l-.87,3.65Z" fill="#c3137f"/><path d="M104.39,14.82h-.29L95.62,3v9.8c0,.87.62,1.31,1.86,1.31v.42H92.93v-.42c1.24,0,1.86-.44,1.86-1.31V1.89l-.15-.23a3.72,3.72,0,0,0-.72-.75,1.87,1.87,0,0,0-1-.19V.3H96.2l7.35,10.35V2c0-.87-.61-1.3-1.85-1.3V.3h4.55V.72c-1.24,0-1.86.43-1.86,1.3Z" fill="#c3137f"/><path d="M13.13,22.13c-.23-.48-.43-.9-.61-1.24a8.54,8.54,0,0,0-.48-.83,5,5,0,0,0-2.92-2,4.16,4.16,0,0,0-1-.12,2.79,2.79,0,0,0-1.26.31A4.39,4.39,0,0,0,5,20.78a12.28,12.28,0,0,0-.5,3.92A12.09,12.09,0,0,0,5,28.58,3.39,3.39,0,0,0,8.4,31.15,6.82,6.82,0,0,0,9.91,31a6.5,6.5,0,0,0,3.44-2.45l.6.56c-.36.42-.64.74-.85,1l-.37.39a6.3,6.3,0,0,1-2.35,1.32A8.69,8.69,0,0,1,8.09,32a7.76,7.76,0,0,1-4.2-1.29,5.72,5.72,0,0,1-2.17-2.5,8.59,8.59,0,0,1,0-7,5.69,5.69,0,0,1,2.17-2.51,7.74,7.74,0,0,1,4.2-1.32,8.3,8.3,0,0,1,2.32.44,9.67,9.67,0,0,0,1.85.44c.29,0,.6-.28.94-.85h.44v4.74Z" fill="#67461f"/><path d="M26.58,30.71a7.48,7.48,0,0,1-8.4,0A5.74,5.74,0,0,1,16,28.21a8.39,8.39,0,0,1,0-7,5.71,5.71,0,0,1,2.18-2.51,7.74,7.74,0,0,1,4.2-1.32,7.74,7.74,0,0,1,4.2,1.32,5.71,5.71,0,0,1,2.18,2.51,8.39,8.39,0,0,1,0,7A5.74,5.74,0,0,1,26.58,30.71Zm-2.07-.21a5.56,5.56,0,0,0,1-1.92,12.19,12.19,0,0,0,.54-3.88,12.32,12.32,0,0,0-.54-3.92,4.35,4.35,0,0,0-1.88-2.57,2.73,2.73,0,0,0-3.29.59,5.18,5.18,0,0,0-1.09,2,12.32,12.32,0,0,0-.54,3.92,12.19,12.19,0,0,0,.54,3.88,4,4,0,0,0,1.88,2.57,2.86,2.86,0,0,0,1.25.32A2.72,2.72,0,0,0,24.51,30.5Z" fill="#67461f"/><path d="M36.77,31.22v.44H30.09v-.44c1.13,0,1.69-.59,1.69-1.76V19.78c0-1.19-.56-1.79-1.69-1.79v-.41H41.78v4.26h-.41c0-.2-.09-.41-.15-.61a3.89,3.89,0,0,1-.16-.61,3.75,3.75,0,0,0-.41-.88,3.69,3.69,0,0,0-.56-.68,3.81,3.81,0,0,0-2.35-.79l-1.76,0c-.44,0-.7.09-.78.28a2.58,2.58,0,0,0-.13.94V24.2a4.08,4.08,0,0,0,2.35-.6,5.94,5.94,0,0,0,1.07-2.51h.44V28h-.44a5.36,5.36,0,0,0-1.07-2.48,4,4,0,0,0-2.35-.59v4.54A1.53,1.53,0,0,0,36.77,31.22Z" fill="#67461f"/><path d="M48.71,31.22v.44H42v-.44c1.13,0,1.69-.59,1.69-1.76V19.78c0-1.19-.56-1.79-1.69-1.79v-.41H53.72v4.26h-.4c0-.2-.1-.41-.16-.61a5.43,5.43,0,0,1-.16-.61,3.39,3.39,0,0,0-.41-.88,3.69,3.69,0,0,0-.56-.68,3.81,3.81,0,0,0-2.35-.79l-1.76,0c-.43,0-.7.09-.78.28a2.62,2.62,0,0,0-.12.94V24.2a4.11,4.11,0,0,0,2.35-.6,6,6,0,0,0,1.06-2.51h.44V28h-.44a5.49,5.49,0,0,0-1.06-2.48A4,4,0,0,0,47,24.92v4.54C47,30.63,47.58,31.22,48.71,31.22Z" fill="#67461f"/><path d="M59.25,30.7a1.41,1.41,0,0,0,1,.33l.43,0h.42a5.08,5.08,0,0,0,3-.83,7.43,7.43,0,0,0,2.18-2.84h.53l-.91,4.27H54.07v-.44c1.13,0,1.69-.59,1.69-1.76V19.78c0-1.19-.56-1.79-1.69-1.79v-.41H65.76v4.26h-.41a4.57,4.57,0,0,0-.16-.61,5.44,5.44,0,0,1-.15-.61,3.75,3.75,0,0,0-.41-.88,4.72,4.72,0,0,0-.56-.68,3.81,3.81,0,0,0-2.35-.79l-1.79,0c-.4,0-.64.09-.74.27a2.26,2.26,0,0,0-.14.95V24.2a4.08,4.08,0,0,0,2.35-.6,5.94,5.94,0,0,0,1.07-2.51h.44V28h-.44a5.47,5.47,0,0,0-1.07-2.48,4,4,0,0,0-2.35-.59v4.7A2,2,0,0,0,59.25,30.7Z" fill="#67461f"/><path d="M72.36,30.7c.13.18.46.29,1,.33l.43,0h.42a5.08,5.08,0,0,0,3-.83,7.43,7.43,0,0,0,2.18-2.84h.53L79,31.66H67.17v-.44c1.13,0,1.69-.59,1.69-1.76V19.78c0-1.19-.56-1.79-1.69-1.79v-.41H78.86v4.26h-.41c0-.2-.09-.41-.15-.61a3.89,3.89,0,0,1-.16-.61,3.75,3.75,0,0,0-.41-.88,4.14,4.14,0,0,0-.56-.68,3.81,3.81,0,0,0-2.35-.79l-1.79,0c-.4,0-.64.09-.74.27a2.26,2.26,0,0,0-.14.95V24.2a4.08,4.08,0,0,0,2.35-.6,5.94,5.94,0,0,0,1.07-2.51H76V28h-.44a5.47,5.47,0,0,0-1.07-2.48,4,4,0,0,0-2.35-.59v4.7A1.9,1.9,0,0,0,72.36,30.7Z" fill="#67461f"/><rect x="81.61" y="17.58" width="0.65" height="14.07" fill="#67461f"/><path d="M85.2,20.15c0,.2.14.3.43.3v.1H84.32v-.1c.29,0,.43-.1.43-.3V17.67c0-.2-.14-.3-.43-.3v-.1h1.31v.1c-.29,0-.43.1-.43.3Z" fill="#67461f"/><path d="M86.16,18.94c0-.2,0-.32-.08-.35h-.2v-.07l.66-.23v.4a.84.84,0,0,1,.67-.4c.34,0,.51.27.51.8v1.07a.3.3,0,0,0,.27.33v.07h-.92v-.07a.3.3,0,0,0,.28-.33V19.08a.86.86,0,0,0-.06-.37.26.26,0,0,0-.27-.17.67.67,0,0,0-.48.29v1.32a.3.3,0,0,0,.27.33v.07h-.93v-.07a.3.3,0,0,0,.28-.33Z" fill="#67461f"/><path d="M88.41,19.79h.07q.1.69.57.69a.33.33,0,0,0,.25-.1.3.3,0,0,0,.1-.25.52.52,0,0,0-.26-.4l-.23-.16-.24-.16a.66.66,0,0,1-.26-.52.58.58,0,0,1,.18-.45.6.6,0,0,1,.43-.16,1,1,0,0,1,.33.09.13.13,0,0,0,.08,0s.06,0,.08-.06h.06V19h-.08q-.13-.6-.48-.6a.35.35,0,0,0-.23.09.3.3,0,0,0-.1.24.49.49,0,0,0,.27.39l.5.34a.62.62,0,0,1,.26.48.63.63,0,0,1-.19.49.64.64,0,0,1-.47.18,1.07,1.07,0,0,1-.31-.08l-.18,0a.08.08,0,0,0-.09.06h-.06Z" fill="#67461f"/><path d="M90.72,19.83c0,.34.06.51.19.51a.41.41,0,0,0,.3-.18l.05.05a.71.71,0,0,1-.57.39.28.28,0,0,1-.3-.23,1.66,1.66,0,0,1,0-.46V18.48h-.14q-.12,0-.12,0v0a5.83,5.83,0,0,0,.62-.75v.66h.43v.15h-.43Z" fill="#67461f"/><path d="M93,20.16c0,.11,0,.16.1.16a.45.45,0,0,0,.23-.12v.14c-.13.17-.25.26-.36.26s-.31-.13-.32-.38a1,1,0,0,1-.64.38.41.41,0,0,1-.33-.16.53.53,0,0,1-.14-.37.75.75,0,0,1,.41-.64l.19-.1.49-.22a2.3,2.3,0,0,0,0-.47.32.32,0,0,0-.58-.11v.29A.2.2,0,0,1,92,19a.17.17,0,0,1-.14.07c-.13,0-.19-.07-.19-.2a.34.34,0,0,1,0-.19.69.69,0,0,1,.69-.37.58.58,0,0,1,.5.19,1.15,1.15,0,0,1,.13.65Zm-.37-.92-.45.21a.51.51,0,0,0-.25.45c0,.27.1.41.31.41a.75.75,0,0,0,.22-.07.53.53,0,0,0,.17-.15Z" fill="#67461f"/><path d="M93.8,18.94c0-.2,0-.32-.08-.35h-.2v-.07l.66-.23v.4a.86.86,0,0,1,.67-.4c.34,0,.51.27.51.8v1.07a.3.3,0,0,0,.28.33v.07h-.93v-.07a.3.3,0,0,0,.28-.33V19.08a1.09,1.09,0,0,0,0-.37.28.28,0,0,0-.28-.17.67.67,0,0,0-.48.29v1.32a.3.3,0,0,0,.27.33v.07h-.93v-.07a.3.3,0,0,0,.28-.33Z" fill="#67461f"/><path d="M96.51,19.83c0,.34.06.51.19.51a.41.41,0,0,0,.3-.18l0,.05a.71.71,0,0,1-.57.39.28.28,0,0,1-.3-.23,1.66,1.66,0,0,1,0-.46V18.48H96q-.12,0-.12,0v0a5.83,5.83,0,0,0,.62-.75v.66h.43v.15h-.43Z" fill="#67461f"/><path d="M87,23.14h-.1c-.14-.61-.46-.92-.95-.92a.86.86,0,0,0-.79.45,2,2,0,0,0-.25,1.1,1.81,1.81,0,0,0,.25,1,.91.91,0,0,0,.8.47,1.36,1.36,0,0,0,1-.5l.07.1a1.52,1.52,0,0,1-.5.44,1.25,1.25,0,0,1-.63.17A1.37,1.37,0,0,1,84.82,25a1.77,1.77,0,0,1-.44-1.26,1.79,1.79,0,0,1,.42-1.22A1.35,1.35,0,0,1,85.88,22a1.46,1.46,0,0,1,.49.09,1.45,1.45,0,0,0,.31.09c.07,0,.13-.06.17-.17H87Z" fill="#67461f"/><path d="M88.39,23.1a1.06,1.06,0,0,1,.4.08.87.87,0,0,1,.31.22.9.9,0,0,1,.2.34,1.25,1.25,0,0,1,.07.45,1.34,1.34,0,0,1-.26.85.86.86,0,0,1-.72.38.83.83,0,0,1-.68-.35,1.16,1.16,0,0,1-.27-.78,1.51,1.51,0,0,1,.07-.48,1.06,1.06,0,0,1,.18-.37.81.81,0,0,1,.3-.25A.87.87,0,0,1,88.39,23.1Zm.08,2.17a.43.43,0,0,0,.38-.26,1.32,1.32,0,0,0,.12-.59,2.1,2.1,0,0,0-.13-.75c-.12-.28-.28-.42-.51-.42a.41.41,0,0,0-.36.21,1.16,1.16,0,0,0-.12.56,2.67,2.67,0,0,0,0,.5,1.17,1.17,0,0,0,.12.4.72.72,0,0,0,.19.25A.39.39,0,0,0,88.47,25.27Z" fill="#67461f"/><path d="M90.47,25a.32.32,0,0,0,.12.27.75.75,0,0,0,.29.06v.07H89.73V25.3a.49.49,0,0,0,.27-.07c.07,0,.1-.13.1-.26V23.3h-.36v-.15h.36a2.26,2.26,0,0,1,0-.27c0-.08,0-.15,0-.21a.92.92,0,0,1,.25-.49.68.68,0,0,1,.47-.19.47.47,0,0,1,.48.29c0,.15-.06.22-.17.22a.21.21,0,0,1-.2-.13.43.43,0,0,0-.14-.21.17.17,0,0,0-.18,0c-.11,0-.17.19-.17.47v.53H91v.15h-.54Z" fill="#67461f"/><path d="M92.08,25a.32.32,0,0,0,.12.27.69.69,0,0,0,.28.06v.07H91.34V25.3a.45.45,0,0,0,.26-.07c.07,0,.1-.13.1-.26V23.3h-.36v-.15h.36c0-.1,0-.19,0-.27l0-.21a.86.86,0,0,1,.25-.49.66.66,0,0,1,.46-.19.48.48,0,0,1,.49.29c0,.15-.06.22-.18.22a.22.22,0,0,1-.2-.13.43.43,0,0,0-.14-.21.17.17,0,0,0-.18,0c-.11,0-.16.19-.16.47v.53h.53v.15h-.53Z" fill="#67461f"/><path d="M93.26,24a1.53,1.53,0,0,0,.17.72.6.6,0,0,0,.54.36c.27,0,.49-.17.67-.52l.07,0a1.44,1.44,0,0,1-.35.58.78.78,0,0,1-.57.25.72.72,0,0,1-.61-.34,1.25,1.25,0,0,1-.22-.77,1.83,1.83,0,0,1,.06-.49,1,1,0,0,1,.18-.38.83.83,0,0,1,.28-.25.78.78,0,0,1,.37-.09.67.67,0,0,1,.55.25,1,1,0,0,1,.22.65Zm.92-.16q0-.57-.42-.57c-.28,0-.45.19-.49.57Z" fill="#67461f"/><path d="M95.35,24a1.66,1.66,0,0,0,.17.72.6.6,0,0,0,.54.36c.27,0,.49-.17.67-.52l.07,0a1.44,1.44,0,0,1-.35.58.78.78,0,0,1-.57.25.71.71,0,0,1-.6-.34,1.2,1.2,0,0,1-.23-.77,1.83,1.83,0,0,1,.06-.49,1,1,0,0,1,.18-.38.78.78,0,0,1,.29-.25.74.74,0,0,1,.36-.09.66.66,0,0,1,.55.25,1,1,0,0,1,.22.65Zm.92-.16q0-.57-.42-.57c-.28,0-.44.19-.49.57Z" fill="#67461f"/><path d="M99.32,22.49q0-.3-.36-.3v-.1h1.11a1.53,1.53,0,0,1,.85.21.72.72,0,0,1,.35.65.88.88,0,0,1-.35.77,1.28,1.28,0,0,1-.77.21,2.48,2.48,0,0,1-.38,0V25q0,.3.39.3v.1H98.93v-.1q.39,0,.39-.3Zm.45,1.24H100c.53,0,.8-.26.8-.76s-.27-.71-.82-.71c-.1,0-.15,0-.17,0a.36.36,0,0,0,0,.19Z" fill="#67461f"/><path d="M102.55,23.1a1,1,0,0,1,.4.08.91.91,0,0,1,.32.22,1.27,1.27,0,0,1,.2.34,1.52,1.52,0,0,1,.07.45,1.41,1.41,0,0,1-.26.85.88.88,0,0,1-.73.38.83.83,0,0,1-.68-.35,1.16,1.16,0,0,1-.27-.78,1.85,1.85,0,0,1,.07-.48,1.29,1.29,0,0,1,.19-.37.86.86,0,0,1,.29-.25A.87.87,0,0,1,102.55,23.1Zm.08,2.17A.43.43,0,0,0,103,25a1.32,1.32,0,0,0,.12-.59,1.9,1.9,0,0,0-.13-.75c-.11-.28-.28-.42-.5-.42a.39.39,0,0,0-.36.21A1.06,1.06,0,0,0,102,24a2.67,2.67,0,0,0,0,.5,1.9,1.9,0,0,0,.12.4.63.63,0,0,0,.2.25A.35.35,0,0,0,102.63,25.27Z" fill="#67461f"/><path d="M106,25.38s0,0,0,0,0,0,0,0l-.47-1.33-.57,1.33s0,0,0,0,0,0,0,0l-.61-1.71-.09-.24c0-.06,0-.09,0-.1a.2.2,0,0,0-.17-.11v-.07h.8v.07c-.14,0-.21.05-.21.17a5.64,5.64,0,0,0,.25.77l.22.63.39-1a1.71,1.71,0,0,0-.16-.47.25.25,0,0,0-.23-.14v-.07h.89v.07c-.17,0-.26,0-.26.15a1.33,1.33,0,0,0,.08.3l.37,1.09.36-1a1.56,1.56,0,0,0,.11-.41c0-.09-.06-.14-.19-.14v-.07h.54v.07c-.07,0-.13.13-.2.32Z" fill="#67461f"/><path d="M109,24.92a.12.12,0,0,0,.1.14h.2v.08l-.34.13-.33.15v-.36a.62.62,0,0,1-.56.35.7.7,0,0,1-.61-.34,1.29,1.29,0,0,1-.21-.76,1.39,1.39,0,0,1,.25-.82.81.81,0,0,1,.68-.4.54.54,0,0,1,.45.2v-.71c0-.15,0-.24,0-.26a.52.52,0,0,0-.25,0v-.09l.38-.11L109,22Zm-.37-1c0-.42-.15-.63-.46-.63a.48.48,0,0,0-.41.29,1.65,1.65,0,0,0,0,1.37.5.5,0,0,0,.44.27.33.33,0,0,0,.28-.13.4.4,0,0,0,.11-.26Z" fill="#67461f"/><path d="M109.86,24a1.53,1.53,0,0,0,.18.72.6.6,0,0,0,.54.36c.27,0,.49-.17.66-.52l.08,0a1.44,1.44,0,0,1-.35.58.78.78,0,0,1-.57.25.71.71,0,0,1-.61-.34,1.25,1.25,0,0,1-.22-.77,1.83,1.83,0,0,1,.06-.49,1,1,0,0,1,.18-.38.83.83,0,0,1,.28-.25.75.75,0,0,1,.37-.09.67.67,0,0,1,.55.25,1,1,0,0,1,.22.65Zm.92-.16q0-.57-.42-.57t-.48.57Z" fill="#67461f"/><path d="M111.9,23.89c0-.32-.05-.48-.17-.48a.44.44,0,0,0-.15,0v-.08l.7-.26v.44c.15-.29.32-.44.5-.44s.27.11.24.32a.16.16,0,0,1-.18.16l-.08,0-.08-.06-.07-.06-.06,0s-.1.05-.17.14a.4.4,0,0,0-.1.24V25c0,.12,0,.21.08.25a.46.46,0,0,0,.25.08v.07h-1V25.3a.49.49,0,0,0,.25-.08.33.33,0,0,0,.07-.25Z" fill="#67461f"/><path d="M86.42,30.27s0,0,0,0,0,0,0,0l-.47-1.34-.57,1.34s0,0,0,0a0,0,0,0,1,0,0l-.62-1.71-.08-.24a.36.36,0,0,1,0-.11.19.19,0,0,0-.17-.1V28h.79v.08c-.13,0-.2.05-.2.16a6.27,6.27,0,0,0,.24.78l.22.63.4-1a1.71,1.71,0,0,0-.16-.47.25.25,0,0,0-.23-.14V28h.89v.08c-.17,0-.26,0-.26.15a1.33,1.33,0,0,0,.08.3l.37,1.09.36-1a1.42,1.42,0,0,0,.1-.41c0-.09-.06-.14-.18-.14V28h.54v.08c-.07,0-.14.12-.2.31Z" fill="#67461f"/><path d="M88,28.66c0-.25,0-.38-.15-.38h-.08l-.11,0v-.07l.71-.26v1.87a.34.34,0,0,0,.08.25.49.49,0,0,0,.25.08v.06h-1v-.06a.53.53,0,0,0,.26-.08.34.34,0,0,0,.08-.25Zm.15-1.28a.21.21,0,0,1-.16-.07.29.29,0,0,1-.07-.18c0-.17.08-.25.23-.25a.2.2,0,0,1,.16.07.3.3,0,0,1,0,.36A.2.2,0,0,1,88.14,27.38Z" fill="#67461f"/><path d="M89.6,29.53c0,.34.06.51.19.51a.41.41,0,0,0,.3-.18l0,.06a.71.71,0,0,1-.57.39.28.28,0,0,1-.3-.24,1.53,1.53,0,0,1,0-.45V28.19h-.14q-.12,0-.12,0s0,0,0,0a4.85,4.85,0,0,0,.62-.74V28H90v.16H89.6Z" fill="#67461f"/><path d="M90.59,27.48v-.17a.19.19,0,0,0,0-.09.11.11,0,0,0-.08,0h-.16V27.1l.38-.12.28-.1v1.51a.73.73,0,0,1,.63-.4.43.43,0,0,1,.43.2,1.25,1.25,0,0,1,.12.63v1a.3.3,0,0,0,.27.33v.06H91.5v-.06a.3.3,0,0,0,.28-.33v-1a1.21,1.21,0,0,0,0-.4.27.27,0,0,0-.29-.18.67.67,0,0,0-.47.29v1.32a.3.3,0,0,0,.27.33v.06h-.93v-.06a.3.3,0,0,0,.28-.33Z" fill="#67461f"/><path d="M97.2,28h-.1c-.14-.61-.46-.92-.95-.92a.87.87,0,0,0-.79.44,2.07,2.07,0,0,0-.25,1.11,1.83,1.83,0,0,0,.25,1,.9.9,0,0,0,.8.46,1.34,1.34,0,0,0,1-.49l.07.1a1.46,1.46,0,0,1-.51.44,1.29,1.29,0,0,1-.63.17A1.4,1.4,0,0,1,95,29.88a2,2,0,0,1,0-2.48,1.35,1.35,0,0,1,1.08-.49,1.46,1.46,0,0,1,.49.09l.3.09c.08,0,.14-.06.18-.17h.1Z" fill="#67461f"/><path d="M98.61,28a.9.9,0,0,1,.4.08.77.77,0,0,1,.31.22.83.83,0,0,1,.2.34,1.25,1.25,0,0,1,.07.45,1.34,1.34,0,0,1-.26.85.86.86,0,0,1-.72.38.81.81,0,0,1-.68-.35,1.18,1.18,0,0,1-.27-.79,1.45,1.45,0,0,1,.07-.47,1.06,1.06,0,0,1,.18-.37.81.81,0,0,1,.3-.25A.87.87,0,0,1,98.61,28Zm.08,2.17a.42.42,0,0,0,.38-.27,1.28,1.28,0,0,0,.12-.58,2,2,0,0,0-.13-.75c-.12-.28-.28-.42-.51-.42a.41.41,0,0,0-.36.21,1.12,1.12,0,0,0-.12.55,2.78,2.78,0,0,0,0,.51,1.12,1.12,0,0,0,.12.39.76.76,0,0,0,.19.26A.45.45,0,0,0,98.69,30.16Z" fill="#67461f"/><path d="M100.29,27.48c0-.17,0-.27,0-.29a.76.76,0,0,0-.3,0V27.1l.35-.09.37-.13v3a.29.29,0,0,0,.09.25.38.38,0,0,0,.24.08v.06h-1v-.06a.41.41,0,0,0,.25-.08.29.29,0,0,0,.09-.25Z" fill="#67461f"/><path d="M101.65,27.48c0-.17,0-.27-.05-.29a.7.7,0,0,0-.29,0V27.1l.34-.09.37-.13v3a.27.27,0,0,0,.1.25.38.38,0,0,0,.24.08v.06h-1v-.06a.44.44,0,0,0,.25-.08.29.29,0,0,0,.09-.25Z" fill="#67461f"/><path d="M104.2,29.87c0,.11,0,.16.1.16a.45.45,0,0,0,.23-.12V30q-.19.27-.36.27c-.21,0-.31-.13-.32-.39a1,1,0,0,1-.64.39.44.44,0,0,1-.33-.16.53.53,0,0,1-.14-.37.75.75,0,0,1,.41-.64l.19-.1.49-.23a2.18,2.18,0,0,0,0-.46.28.28,0,0,0-.29-.25.29.29,0,0,0-.29.14v.29a.24.24,0,0,1-.06.15.21.21,0,0,1-.14.07c-.13,0-.19-.07-.19-.21a.41.41,0,0,1,0-.18.69.69,0,0,1,.69-.37.58.58,0,0,1,.5.19,1.15,1.15,0,0,1,.13.65Zm-.37-.92a3.46,3.46,0,0,0-.45.21.51.51,0,0,0-.25.45c0,.27.1.4.31.4a.66.66,0,0,0,.22-.06.53.53,0,0,0,.17-.15Z" fill="#67461f"/><path d="M106.74,28.34h-.37a1,1,0,0,1,.09.43.77.77,0,0,1-.2.55.73.73,0,0,1-.51.2l-.24,0a.34.34,0,0,0-.17.14c-.07.08-.09.14-.08.19s.17.1.39.11a4,4,0,0,1,.74.07.43.43,0,0,1,.31.48.71.71,0,0,1-.42.63,1.37,1.37,0,0,1-.73.21.88.88,0,0,1-.57-.18.43.43,0,0,1-.18-.33.39.39,0,0,1,.14-.28l.29-.29c-.16-.08-.23-.16-.23-.26s.13-.32.39-.54a.68.68,0,0,1-.41-.66.82.82,0,0,1,.22-.58.74.74,0,0,1,.55-.22.9.9,0,0,1,.36.09,1.14,1.14,0,0,0,.42.09h.21Zm-1.42,1.92a.88.88,0,0,0-.21.44c0,.23.21.35.62.35a1.22,1.22,0,0,0,.62-.13.37.37,0,0,0,.23-.34c0-.16-.2-.25-.59-.26l-.4,0Zm0-1.66a1.36,1.36,0,0,0,.09.51.39.39,0,0,0,.36.29c.22,0,.33-.17.33-.5a1,1,0,0,0-.11-.49c-.08-.19-.19-.29-.32-.29S105.34,28.28,105.34,28.6Z" fill="#67461f"/><path d="M107.41,28.89a1.59,1.59,0,0,0,.18.72.6.6,0,0,0,.54.36c.27,0,.49-.18.66-.53l.08,0a1.6,1.6,0,0,1-.35.59.82.82,0,0,1-.57.25.73.73,0,0,1-.61-.34,1.28,1.28,0,0,1-.23-.77,1.59,1.59,0,0,1,.07-.5,1.06,1.06,0,0,1,.18-.37A.78.78,0,0,1,108,28a.67.67,0,0,1,.55.25,1,1,0,0,1,.22.65Zm.92-.16q0-.57-.42-.57t-.48.57Z" fill="#67461f"/><path d="M109.43,28.65c0-.21,0-.32-.08-.35l-.07,0h-.13v-.07l.65-.23v.4a.86.86,0,0,1,.67-.4c.34,0,.51.26.51.79v1.08a.3.3,0,0,0,.28.33v.06h-.93v-.06a.3.3,0,0,0,.28-.33V28.79a1.09,1.09,0,0,0,0-.37.28.28,0,0,0-.28-.17.67.67,0,0,0-.48.29v1.32a.3.3,0,0,0,.27.33v.06h-.92v-.06a.3.3,0,0,0,.28-.33Z" fill="#67461f"/></svg>